<?xml version="1.0" standalone="no"?>
<!DOCTYPE svg PUBLIC "-//W3C//DTD SVG 20010904//EN"
 "http://www.w3.org/TR/2001/REC-SVG-20010904/DTD/svg10.dtd">
<svg version="1.0" xmlns="http://www.w3.org/2000/svg"
 width="2953.000000pt" height="2126.000000pt" viewBox="0 0 2953.000000 2126.000000"
 preserveAspectRatio="xMidYMid meet">

<g transform="translate(0.000000,2126.000000) scale(0.100000,-0.100000)"
fill="#000000" stroke="none">
<path d="M4096 19349 c-1102 -66 -2027 -563 -2569 -1381 -448 -676 -625 -1556
-496 -2463 123 -861 558 -1602 1223 -2084 452 -327 996 -528 1646 -607 179
-22 711 -26 890 -6 1188 130 2086 703 2581 1647 178 339 286 695 346 1135 26
194 26 763 0 965 -145 1117 -738 1974 -1682 2435 -575 281 -1230 402 -1939
359z m429 -1269 c342 -25 618 -108 880 -265 500 -300 816 -815 890 -1453 19
-163 19 -422 0 -586 -70 -601 -358 -1093 -814 -1397 -304 -202 -631 -302
-1036 -316 -372 -13 -683 51 -990 203 -179 88 -304 175 -438 304 -371 355
-565 815 -593 1405 -13 298 37 637 133 895 173 462 472 800 899 1013 260 130
522 191 884 205 25 1 108 -3 185 -8z"/>
<path d="M11350 16075 l0 -3125 690 0 690 0 2 1479 3 1479 1269 -1479 1269
-1479 964 0 963 0 -1172 1298 c-645 713 -1325 1465 -1511 1671 l-338 374 54
56 c30 31 631 659 1337 1396 706 737 1308 1366 1339 1398 l55 57 -901 0 -901
0 -1214 -1296 -1213 -1296 -3 1296 -2 1296 -690 0 -690 0 0 -3125z"/>
<path d="M26925 13930 c-465 -50 -882 -322 -1114 -728 -236 -413 -253 -927
-44 -1358 204 -422 595 -715 1068 -801 122 -22 368 -22 494 1 287 52 547 185
755 386 134 129 213 238 296 405 119 240 156 412 147 694 -3 107 -12 205 -22
251 -162 735 -840 1228 -1580 1150z m376 -155 c458 -75 859 -417 1017 -865 54
-153 67 -237 67 -430 0 -193 -13 -277 -67 -430 -160 -453 -550 -782 -1024
-865 -112 -19 -325 -19 -438 1 -540 94 -965 515 -1072 1061 -24 119 -24 347 0
466 52 268 172 495 364 690 306 310 719 443 1153 372z"/>
<path d="M26550 12541 l0 -801 140 0 140 0 2 338 3 337 105 3 105 2 185 -340
185 -340 172 0 173 0 -205 338 c-112 185 -207 345 -210 354 -5 13 2 17 35 23
63 11 174 71 215 116 21 23 51 71 69 108 30 64 31 70 31 206 0 135 -1 142 -29
200 -39 79 -107 145 -189 184 -121 58 -165 63 -564 68 l-363 5 0 -801z m715
535 c194 -68 195 -326 1 -393 -42 -15 -85 -18 -241 -18 l-190 0 -3 205 c-1
112 0 211 3 218 8 22 361 11 430 -12z"/>
<path d="M4105 12179 c-1093 -102 -1975 -607 -2492 -1428 -231 -367 -389 -801
-453 -1246 -53 -366 -55 -813 -4 -1165 102 -709 412 -1336 890 -1801 609 -591
1464 -909 2444 -909 971 0 1823 314 2429 895 246 236 436 495 594 812 168 334
268 669 324 1083 23 169 26 771 5 940 -54 435 -148 759 -322 1115 -476 972
-1420 1585 -2618 1700 -169 16 -640 19 -797 4z m580 -1260 c594 -51 1095 -335
1406 -798 166 -246 270 -523 320 -856 28 -183 31 -502 5 -680 -71 -498 -266
-891 -593 -1194 -287 -266 -668 -435 -1085 -480 -125 -14 -371 -14 -496 0
-799 87 -1405 602 -1617 1376 -57 208 -78 373 -78 623 0 329 44 571 154 850
310 788 1079 1237 1984 1159z"/>
<path d="M14075 12179 c-801 -79 -1454 -350 -1982 -821 -507 -451 -859 -1128
-963 -1853 -53 -366 -55 -815 -4 -1165 117 -811 508 -1516 1103 -1989 532
-423 1183 -659 1961 -712 754 -51 1478 142 2011 537 177 131 541 517 513 544
-5 4 -259 193 -564 420 -305 227 -560 417 -565 421 -6 5 -34 -24 -69 -72 -168
-226 -433 -418 -703 -508 -184 -62 -276 -75 -523 -75 -197 0 -238 2 -330 22
-539 117 -968 460 -1221 977 -106 217 -173 440 -204 680 -21 156 -24 464 -6
610 112 913 699 1575 1516 1711 159 27 447 24 609 -5 302 -54 554 -181 760
-383 55 -54 102 -98 104 -98 2 0 63 49 135 108 73 60 308 252 522 426 215 175
390 322 390 327 0 17 -142 174 -225 248 -377 338 -833 541 -1415 632 -116 18
-192 22 -450 24 -170 2 -350 -1 -400 -6z"/>
<path d="M20150 8915 l0 -3125 2200 0 2200 0 0 635 0 635 -1515 0 -1515 0 0
635 0 635 1355 0 1355 0 0 635 0 635 -1355 0 -1355 0 0 585 0 585 1435 0 1435
0 0 635 0 635 -2120 0 -2120 0 0 -3125z"/>
<path d="M1249 3727 c-146 -42 -229 -155 -229 -313 0 -135 75 -249 195 -294
122 -45 288 -11 364 76 56 63 74 111 79 204 3 70 0 95 -18 144 -29 77 -97 146
-165 170 -67 23 -169 29 -226 13z m176 -106 c49 -22 99 -77 115 -127 18 -55 7
-145 -24 -199 -38 -64 -95 -95 -176 -95 -113 0 -193 73 -207 189 -20 172 141
301 292 232z"/>
<path d="M5819 3727 c-156 -44 -237 -164 -227 -336 6 -91 36 -159 96 -213 82
-74 226 -99 333 -58 49 18 109 64 109 82 0 4 -19 22 -42 38 l-42 30 -33 -32
c-29 -28 -41 -33 -98 -36 -56 -4 -70 -1 -109 22 -87 51 -127 169 -92 273 44
132 210 188 303 101 l22 -21 41 33 41 33 -22 23 c-54 58 -188 87 -280 61z"/>
<path d="M2020 3415 l0 -305 55 0 55 0 0 237 0 237 152 -237 152 -237 68 0 68
0 0 305 0 305 -55 0 -55 0 -2 -221 -3 -221 -144 221 -144 221 -73 0 -74 0 0
-305z"/>
<path d="M2960 3415 l0 -305 210 0 210 0 0 50 0 50 -155 0 -155 0 0 85 0 85
140 0 140 0 0 45 0 45 -140 0 -140 0 0 75 0 75 145 0 145 0 0 50 0 50 -200 0
-200 0 0 -305z"/>
<path d="M4000 3415 l0 -305 50 0 50 0 0 151 c0 83 4 149 8 147 5 -1 64 -66
132 -143 69 -77 129 -143 135 -147 12 -9 145 -11 145 -2 0 4 -55 65 -122 138
-67 72 -133 143 -147 159 l-25 28 139 139 140 140 -71 0 -71 0 -123 -125 c-68
-69 -128 -125 -132 -125 -4 0 -8 56 -8 125 l0 125 -50 0 -50 0 0 -305z"/>
<path d="M4840 3415 l0 -305 210 0 210 0 0 50 0 50 -155 0 -155 0 0 85 0 85
140 0 140 0 0 45 0 45 -140 0 -140 0 0 75 0 75 145 0 145 0 0 50 0 50 -200 0
-200 0 0 -305z"/>
<path d="M6646 3688 c-7 -18 -66 -153 -130 -300 -64 -147 -116 -270 -116 -273
0 -3 26 -5 58 -5 l59 0 27 70 28 70 133 0 133 0 28 -70 27 -70 59 0 c32 0 58
3 58 8 1 4 -57 141 -127 305 l-127 297 -48 0 c-44 0 -49 -2 -62 -32z m112
-230 l40 -108 -94 0 -94 0 21 53 c12 28 27 68 34 87 30 81 36 93 44 84 5 -5
27 -57 49 -116z"/>
<path d="M7340 3414 l0 -305 53 3 52 3 5 244 5 243 89 -246 89 -246 36 0 37 0
89 244 90 245 5 -242 5 -242 53 -3 52 -3 0 305 0 306 -83 0 -83 0 -79 -205
c-43 -113 -81 -205 -84 -205 -3 0 -42 92 -85 205 l-79 205 -83 0 -84 0 0 -306z"/>
<path d="M8460 3430 c-69 -159 -127 -297 -128 -305 -3 -13 6 -16 54 -13 l58 3
26 65 26 65 136 3 135 3 27 -71 28 -70 59 0 c32 0 59 3 59 8 0 4 -58 140 -128
302 l-128 295 -50 3 -49 2 -125 -290z m219 42 c22 -59 41 -110 41 -115 0 -4
-41 -7 -91 -7 -50 0 -89 4 -87 8 2 5 21 57 43 115 22 59 43 107 46 107 3 0 25
-48 48 -108z"/>
<path d="M9210 3670 l0 -50 90 0 90 0 0 -255 0 -255 55 0 55 0 0 255 0 254 93
3 92 3 3 48 3 47 -240 0 -241 0 0 -50z"/>
<path d="M10201 3693 c-32 -68 -251 -574 -251 -578 0 -3 26 -5 58 -5 l59 0 27
70 28 70 132 0 133 0 31 -70 31 -70 55 0 c32 0 56 4 56 10 0 6 -57 143 -127
305 l-127 295 -46 0 c-41 0 -48 -3 -59 -27z m103 -224 l43 -114 -43 -3 c-24
-2 -65 -2 -92 0 l-48 3 45 117 c25 64 47 115 49 113 2 -1 23 -54 46 -116z"/>
<path d="M10890 3415 l0 -305 55 0 55 0 2 232 3 233 149 -233 149 -232 69 0
68 0 0 305 0 305 -55 0 -55 0 -2 -222 -3 -222 -144 222 -145 222 -73 0 -73 0
0 -305z"/>
<path d="M1223 2522 c-139 -50 -212 -171 -201 -332 8 -113 65 -202 161 -252
58 -30 204 -37 275 -14 114 38 192 146 200 278 8 139 -49 247 -162 305 -69 36
-196 42 -273 15z m175 -84 c58 -14 122 -76 140 -134 46 -155 -50 -304 -198
-304 -161 0 -260 179 -182 330 30 59 57 84 118 105 49 18 63 18 122 3z"/>
<path d="M4195 2531 c-84 -22 -157 -79 -198 -154 -19 -36 -22 -57 -22 -152 0
-96 3 -116 23 -155 34 -65 69 -99 137 -131 114 -55 282 -34 354 45 14 14 23
27 20 29 -2 1 -21 15 -41 30 l-36 27 -52 -35 c-58 -39 -114 -46 -173 -21 -43
17 -94 69 -113 115 -22 49 -21 148 1 192 47 93 144 143 231 119 23 -7 51 -21
60 -31 23 -25 33 -24 74 10 30 25 33 31 20 46 -7 9 -33 28 -58 42 -36 21 -60
27 -121 29 -42 2 -89 0 -106 -5z"/>
<path d="M10085 2531 c-84 -22 -154 -80 -196 -161 -21 -39 -24 -59 -24 -150 0
-98 2 -109 30 -158 35 -64 71 -97 143 -130 48 -22 64 -24 150 -20 80 3 106 9
148 30 59 31 108 84 138 147 30 67 29 207 -2 276 -51 111 -138 166 -272 171
-47 2 -98 0 -115 -5z m201 -116 c27 -16 54 -44 71 -73 52 -87 34 -222 -39
-289 -100 -94 -269 -57 -329 72 -25 53 -25 147 0 201 50 111 189 152 297 89z"/>
<path d="M21830 2529 c-46 -14 -96 -53 -115 -89 -9 -17 -15 -55 -15 -91 0 -58
2 -64 38 -99 25 -25 59 -44 104 -59 95 -32 132 -59 136 -100 8 -85 -118 -121
-196 -56 l-28 23 -39 -32 c-48 -40 -43 -55 26 -90 43 -21 67 -26 129 -26 144
0 220 64 220 186 0 101 -28 128 -202 194 -32 12 -62 28 -69 36 -19 24 -13 64
14 92 35 34 112 37 156 5 l28 -22 39 40 c42 43 43 42 -21 76 -36 20 -156 27
-205 12z"/>
<path d="M2020 2225 l0 -305 55 0 55 0 2 231 3 231 149 -231 148 -231 69 0 69
0 0 305 0 305 -55 0 -55 0 -2 -225 -3 -224 -145 224 -145 224 -72 1 -73 0 0
-305z"/>
<path d="M2960 2225 l0 -305 210 0 210 0 0 45 0 45 -155 0 -155 0 0 85 0 85
140 0 140 0 0 50 0 50 -140 0 -140 0 0 75 0 75 145 0 145 0 0 50 0 50 -200 0
-200 0 0 -305z"/>
<path d="M4840 2225 l0 -305 210 0 210 0 0 45 0 45 -155 0 -155 0 0 85 0 85
140 0 140 0 0 50 0 50 -140 0 -140 0 0 75 0 75 145 0 145 0 0 50 0 50 -200 0
-200 0 0 -305z"/>
<path d="M5620 2225 l0 -305 55 0 55 0 2 230 3 229 148 -229 149 -230 69 0 69
0 0 305 0 305 -55 0 -55 0 -2 -226 -3 -225 -145 225 -145 225 -72 0 -73 1 0
-305z"/>
<path d="M6500 2480 l0 -49 93 -3 92 -3 3 -252 2 -253 50 0 50 0 0 255 0 255
95 0 95 0 0 50 0 50 -240 0 -240 0 0 -50z"/>
<path d="M7310 2225 l0 -305 205 0 205 0 0 45 0 44 -152 3 -153 3 -3 83 -3 82
141 0 140 0 0 50 0 50 -140 0 -141 0 3 73 3 72 148 3 147 3 0 49 0 50 -200 0
-200 0 0 -305z"/>
<path d="M8090 2227 l0 -307 50 0 49 0 3 128 3 127 40 3 40 3 70 -130 70 -131
63 0 c34 0 62 2 62 4 0 3 -34 62 -76 131 -42 69 -74 127 -73 128 2 1 22 11 44
22 59 30 85 75 85 149 0 77 -22 116 -84 145 -38 19 -69 23 -196 28 l-150 6 0
-306z m242 207 c52 -9 78 -36 78 -83 0 -60 -25 -75 -131 -79 l-89 -4 0 79 c0
44 3 83 7 86 8 9 86 9 135 1z"/>
<path d="M9140 2225 l0 -305 55 0 55 0 0 125 0 125 130 0 130 0 0 50 0 50
-130 0 -130 0 0 80 0 80 140 0 140 0 0 50 0 50 -195 0 -195 0 0 -305z"/>
<path d="M10860 2227 l0 -307 50 0 49 0 3 128 3 127 41 3 40 3 70 -128 69
-128 63 -3 c34 -2 62 0 62 4 0 3 -34 62 -75 131 -42 69 -75 126 -73 127 2 1
22 10 46 21 59 25 84 69 84 145 0 78 -23 118 -84 148 -40 20 -67 24 -197 29
l-151 6 0 -306z m283 198 c26 -11 49 -60 41 -90 -12 -48 -48 -65 -140 -65
l-84 0 0 78 c0 43 3 82 8 86 8 9 148 2 175 -9z"/>
<path d="M11910 2225 l0 -305 210 0 210 0 0 45 0 45 -155 0 -155 0 0 85 0 85
140 0 140 0 0 50 0 50 -140 0 -140 0 0 75 0 75 145 0 145 0 0 50 0 50 -200 0
-200 0 0 -305z"/>
<path d="M12690 2225 l0 -305 55 0 55 0 2 230 3 229 148 -229 149 -230 69 0
69 0 0 305 0 305 -55 0 -55 0 -2 -226 -3 -225 -145 225 -145 225 -72 0 -73 1
0 -305z"/>
<path d="M13570 2480 l0 -49 93 -3 92 -3 3 -252 2 -253 50 0 50 0 0 255 0 255
95 0 95 0 0 50 0 50 -240 0 -240 0 0 -50z"/>
<path d="M14380 2227 l0 -307 50 0 49 0 3 128 3 127 40 3 40 3 70 -130 70
-131 63 0 c34 0 62 2 62 4 0 3 -34 62 -76 131 -42 69 -74 127 -73 129 2 1 18
8 35 15 18 7 44 26 60 42 25 26 29 39 32 102 6 141 -45 175 -279 184 l-149 6
0 -306z m288 192 c31 -20 45 -65 29 -97 -18 -39 -53 -52 -139 -52 l-78 0 0 78
c0 43 3 82 8 86 11 12 156 0 180 -15z"/>
<path d="M15190 2225 l0 -305 210 0 210 0 0 45 0 45 -155 0 -155 0 0 85 0 85
135 0 135 0 0 50 0 50 -135 0 -135 0 0 75 0 75 145 0 145 0 0 50 0 50 -200 0
-200 0 0 -305z"/>
<path d="M15970 2226 l0 -306 55 0 55 0 0 124 0 123 93 6 c103 6 150 21 186
60 29 32 44 105 32 158 -23 103 -75 129 -277 137 l-144 5 0 -307z m249 201
c51 -18 77 -58 65 -99 -13 -45 -60 -68 -141 -68 l-63 0 0 90 0 90 53 -1 c28 0
67 -5 86 -12z"/>
<path d="M16690 2226 l0 -306 55 0 55 0 0 130 0 130 39 0 39 0 69 -127 69
-128 62 -3 c34 -2 62 0 62 4 0 3 -34 62 -75 131 -42 69 -75 126 -73 127 2 1
22 10 46 21 60 26 86 71 86 150 0 49 -5 69 -24 95 -40 56 -93 72 -262 78
l-148 5 0 -307z m254 204 c48 -11 64 -26 72 -67 5 -27 1 -37 -24 -63 -29 -28
-35 -30 -111 -30 l-81 0 0 85 0 85 53 0 c28 0 70 -5 91 -10z"/>
<path d="M17550 2225 l0 -305 205 0 205 0 0 45 0 44 -152 3 -153 3 -3 83 -3
82 141 0 140 0 0 50 0 50 -140 0 -140 0 0 75 0 75 145 0 145 0 0 50 0 50 -195
0 -195 0 0 -305z"/>
<path d="M18330 2225 l0 -305 50 0 50 0 2 232 3 232 150 -232 149 -232 68 0
68 0 0 305 0 305 -50 0 -50 0 0 -225 c0 -124 -3 -225 -7 -225 -5 1 -73 102
-153 225 l-145 225 -67 0 -68 0 0 -305z"/>
<path d="M19270 2225 l0 -305 205 0 205 0 0 45 0 44 -152 3 -153 3 -3 83 -3
82 141 0 140 0 0 50 0 50 -140 0 -140 0 0 75 0 75 145 0 145 0 0 50 0 50 -195
0 -195 0 0 -305z"/>
<path d="M20042 2297 l3 -234 30 -48 c44 -71 112 -105 209 -105 99 0 168 34
211 104 l30 49 3 234 3 233 -55 0 -56 0 0 -211 c0 -263 -6 -282 -103 -310 -43
-12 -97 5 -132 41 l-30 31 -3 225 -3 224 -55 0 -56 0 4 -233z"/>
<path d="M20920 2227 l0 -307 50 0 49 0 3 128 3 127 40 3 40 3 70 -130 70
-131 63 0 c34 0 62 2 62 4 0 3 -34 62 -76 131 -42 69 -74 127 -73 128 2 1 22
11 44 22 59 30 85 75 85 149 0 77 -22 116 -84 145 -38 19 -69 23 -196 28
l-150 6 0 -306z m288 192 c31 -20 45 -65 29 -97 -18 -39 -53 -52 -139 -52
l-78 0 0 78 c0 43 3 82 8 86 11 12 156 0 180 -15z"/>
<path d="M22470 2225 l0 -305 50 0 50 0 0 135 0 135 145 0 145 0 0 -135 0
-135 50 0 50 0 0 305 0 305 -50 0 -50 0 0 -125 0 -125 -145 0 -145 0 0 125 0
125 -50 0 -50 0 0 -305z"/>
<path d="M23360 2225 l0 -305 50 0 50 0 0 305 0 305 -50 0 -50 0 0 -305z"/>
<path d="M23850 2226 l0 -306 55 0 55 0 0 124 0 123 93 6 c107 6 152 22 189
65 46 55 46 164 -2 225 -35 44 -91 59 -247 65 l-143 5 0 -307z m249 201 c51
-18 77 -58 65 -99 -13 -45 -60 -68 -141 -68 l-63 0 0 90 0 90 53 -1 c28 0 67
-5 86 -12z"/>
</g>
</svg>
