<?xml version="1.0" standalone="no"?>
<!DOCTYPE svg PUBLIC "-//W3C//DTD SVG 20010904//EN"
 "http://www.w3.org/TR/2001/REC-SVG-20010904/DTD/svg10.dtd">
<svg version="1.0" xmlns="http://www.w3.org/2000/svg"
 width="3953.000000pt" height="1930.000000pt" viewBox="0 0 3953.000000 1930.000000"
 preserveAspectRatio="xMidYMid meet">

<g transform="translate(0.000000,1930.000000) scale(0.100000,-0.100000)"
fill="#000000" stroke="none">
<path d="M10025 19275 c-177 -28 -362 -89 -560 -185 -399 -194 -619 -458 -692
-829 -25 -128 -22 -370 6 -531 64 -369 161 -585 353 -787 338 -353 833 -476
1366 -337 530 138 876 492 972 994 39 201 35 396 -11 609 -109 502 -462 908
-900 1035 -162 47 -363 58 -534 31z"/>
<path d="M160 17370 l-145 -5 95 -47 c183 -90 352 -130 861 -202 351 -50 454
-71 798 -156 728 -181 1420 -419 2026 -698 1247 -573 2267 -1356 3195 -2453
63 -74 126 -150 140 -168 14 -19 62 -80 107 -137 230 -291 390 -523 865 -1248
112 -171 164 -241 241 -321 l97 -102 -5 -44 c-2 -24 -9 -91 -15 -149 -23 -223
-64 -433 -194 -1005 -180 -788 -218 -1056 -236 -1662 -30 -976 68 -2059 285
-3158 198 -1005 525 -2164 888 -3155 57 -157 117 -323 132 -370 139 -429 250
-657 404 -829 l48 -55 6 1210 c3 665 10 1335 16 1489 30 774 77 1399 152 2036
21 170 24 185 35 156 6 -17 27 -73 47 -122 169 -429 252 -1006 277 -1919 15
-551 1 -1102 -56 -2214 -14 -272 -24 -512 -22 -534 l3 -40 74 56 c155 115 201
207 434 867 684 1935 1106 3691 1221 5084 40 477 55 1070 37 1465 -27 597 -88
1026 -217 1530 -31 118 -77 301 -104 405 -107 418 -106 629 7 950 25 72 46
140 46 152 1 11 5 19 8 17 7 -4 35 57 31 69 -1 4 3 7 9 7 5 0 7 5 4 10 -3 6
-2 10 3 10 5 0 9 6 9 13 1 20 256 467 290 507 7 8 12 17 11 20 -1 3 6 14 15
25 9 11 17 23 17 28 0 4 9 16 20 27 12 12 18 26 14 33 -4 7 -4 9 1 5 11 -10
38 29 30 42 -4 6 -1 9 7 8 7 -2 12 5 12 14 -1 10 3 16 10 15 6 -1 10 6 10 16
-1 10 1 16 4 13 8 -9 34 33 27 44 -4 6 -1 9 7 8 7 -2 12 5 12 14 -1 10 3 16
10 15 6 -1 10 6 10 15 -1 10 3 16 10 15 6 -1 10 6 10 16 -1 10 1 16 4 13 8 -9
102 136 95 147 -3 6 -2 7 4 4 8 -5 38 34 43 55 0 4 14 21 31 39 16 17 27 34
25 37 -3 2 5 13 17 23 12 10 18 18 12 19 -5 0 1 7 13 16 12 8 20 20 17 25 -4
5 -2 9 4 9 13 0 107 120 103 132 -1 5 2 7 7 4 5 -4 19 7 31 24 12 16 18 30 14
30 -3 0 -1 7 6 15 7 8 16 13 20 10 5 -3 20 10 35 27 15 18 66 74 114 123 48
50 125 139 171 199 434 559 1022 1094 1706 1553 1073 719 2362 1264 3659 1547
263 58 428 85 660 111 121 14 242 30 269 35 48 10 528 155 556 168 50 22
-1226 40 -1660 23 -2505 -100 -4654 -709 -6510 -1844 -449 -275 -857 -568
-1385 -997 -234 -191 -354 -280 -374 -280 -33 0 -372 254 -441 330 -35 39
-342 308 -435 382 -544 429 -1329 888 -2075 1215 -1182 518 -2819 923 -4430
1097 -808 88 -1716 123 -2440 96z m9837 -10592 c-3 -8 -6 -5 -6 6 -1 11 2 17
5 13 3 -3 4 -12 1 -19z m-20 -160 c-3 -8 -6 -5 -6 6 -1 11 2 17 5 13 3 -3 4
-12 1 -19z m-10 -90 c-3 -8 -6 -5 -6 6 -1 11 2 17 5 13 3 -3 4 -12 1 -19z
m-10 -110 c-3 -7 -5 -2 -5 12 0 14 2 19 5 13 2 -7 2 -19 0 -25z"/>
<path d="M15895 14480 c-167 -23 -297 -61 -435 -127 -228 -108 -425 -295 -543
-514 -47 -88 -102 -237 -120 -329 -33 -165 -37 -201 -37 -329 0 -378 131 -715
367 -947 187 -184 388 -286 693 -350 119 -25 466 -26 595 0 200 38 388 114
534 214 222 152 406 414 477 680 47 176 60 475 28 663 -20 118 -72 277 -126
383 -53 102 -173 262 -241 320 -29 25 -65 57 -82 71 -36 32 -170 111 -245 147
-90 42 -203 77 -345 108 -64 14 -441 21 -520 10z m349 -491 c108 -19 179 -42
255 -81 207 -107 345 -295 396 -539 20 -96 20 -292 -1 -388 -38 -187 -136
-352 -274 -463 -75 -60 -205 -119 -323 -147 -59 -14 -296 -15 -348 -1 -22 6
-58 15 -81 21 -118 30 -268 128 -355 231 -95 111 -154 249 -179 417 -17 114
-18 168 -3 263 46 294 186 497 425 614 50 24 117 49 150 55 32 6 73 15 89 19
45 12 181 11 249 -1z"/>
<path d="M18955 14418 c-3 -7 -4 -571 -3 -1253 l3 -1240 268 -3 267 -2 0 590
c0 602 0 608 35 582 11 -7 109 -120 160 -182 37 -45 267 -313 275 -320 3 -3
73 -84 155 -180 82 -96 152 -177 155 -180 3 -3 30 -34 60 -70 30 -36 60 -71
67 -78 6 -7 40 -46 74 -87 l62 -75 379 0 380 0 -32 38 c-45 51 -183 204 -251
277 -30 33 -73 80 -96 105 -67 75 -353 392 -392 435 -20 22 -126 138 -235 259
-179 195 -198 220 -190 241 8 21 129 149 604 640 398 411 479 497 480 508 0 4
-156 7 -346 7 l-346 0 -37 -38 c-94 -100 -403 -430 -526 -562 -293 -314 -406
-430 -421 -430 -11 0 -14 87 -16 513 l-3 512 -263 3 c-205 2 -264 0 -267 -10z"/>
<path d="M25210 12295 c-157 -30 -272 -99 -367 -221 -86 -110 -135 -290 -113
-415 18 -106 41 -171 85 -239 113 -175 286 -270 490 -270 259 0 473 160 555
412 18 56 21 84 17 175 -4 127 -16 176 -62 260 -46 83 -81 126 -155 183 -86
68 -143 92 -270 116 -87 16 -94 16 -180 -1z m165 -35 c186 -27 332 -133 413
-300 147 -302 1 -639 -326 -751 -87 -30 -239 -27 -334 7 -94 34 -137 62 -212
138 -76 78 -112 145 -142 266 -61 250 96 520 362 619 16 7 59 16 95 20 35 5
66 9 69 10 3 0 37 -4 75 -9z"/>
<path d="M25108 12054 c-5 -4 -8 -144 -8 -311 l0 -303 45 0 45 0 0 123 c0 82
4 127 12 135 7 7 31 12 54 12 40 0 42 -1 75 -62 18 -35 46 -85 62 -113 15 -27
33 -60 39 -72 10 -20 19 -23 69 -23 l58 0 -28 48 c-15 26 -40 66 -54 89 -15
24 -27 45 -27 48 0 3 -11 22 -25 42 -26 40 -20 63 16 63 11 0 36 17 58 39 29
29 40 49 45 84 9 56 -7 120 -37 148 -50 47 -75 53 -237 57 -85 2 -158 0 -162
-4z m282 -82 c44 -22 63 -60 54 -108 -10 -56 -49 -74 -155 -74 -100 0 -99 -1
-99 96 0 97 6 104 93 104 47 -1 84 -7 107 -18z"/>
<path d="M16015 11594 c-350 -34 -641 -167 -856 -391 -102 -107 -187 -234
-233 -348 -16 -38 -32 -79 -37 -90 -35 -86 -79 -349 -79 -475 0 -70 23 -271
38 -335 34 -141 58 -207 120 -325 71 -135 200 -293 301 -368 20 -15 42 -33 49
-39 7 -7 17 -13 21 -13 4 0 17 -9 28 -19 24 -23 206 -111 278 -136 70 -24 147
-44 240 -62 103 -21 448 -23 550 -4 172 32 331 89 485 173 124 67 302 232 382
355 106 160 173 337 203 535 26 171 13 486 -24 598 -5 14 -17 52 -26 85 -28
96 -131 305 -165 335 -3 3 -22 28 -43 56 -121 167 -358 327 -597 402 -67 21
-77 23 -195 47 -69 14 -362 27 -440 19z m285 -494 c207 -30 390 -138 512 -302
33 -43 98 -171 98 -191 0 -7 3 -17 7 -21 20 -20 35 -117 40 -262 4 -128 2
-179 -12 -245 -9 -46 -21 -88 -26 -93 -5 -6 -9 -17 -9 -25 0 -22 -50 -121 -89
-176 -52 -73 -89 -112 -153 -162 -91 -70 -155 -100 -308 -145 -60 -17 -319
-17 -380 0 -25 7 -61 18 -80 24 -47 14 -169 72 -200 94 -14 11 -62 57 -108
103 -68 68 -91 100 -128 177 -26 52 -51 111 -56 132 -67 260 -44 497 70 717
55 106 191 237 302 291 112 54 181 77 265 87 62 8 192 6 255 -3z"/>
<path d="M20050 11594 c-168 -19 -334 -58 -435 -103 -302 -133 -493 -310 -626
-579 -66 -136 -68 -140 -109 -302 -39 -149 -39 -507 0 -650 52 -195 97 -301
187 -440 158 -242 436 -430 743 -503 144 -35 201 -41 375 -41 213 0 306 17
475 84 176 69 294 155 418 304 27 32 29 28 -78 105 -41 30 -77 57 -80 60 -13
17 -260 191 -269 191 -6 0 -11 -4 -11 -8 0 -5 -24 -33 -52 -64 -195 -206 -531
-247 -793 -98 -192 110 -319 294 -376 545 -20 88 -17 312 5 400 82 316 249
500 541 593 64 21 277 23 355 3 86 -21 190 -75 253 -131 51 -46 60 -50 74 -39
14 12 99 81 228 187 11 10 50 41 88 70 37 30 67 59 67 66 0 16 -113 124 -175
168 -107 75 -277 142 -430 168 -65 11 -318 21 -375 14z"/>
<path d="M22573 11532 l-63 -3 3 -1247 2 -1247 875 0 875 0 3 243 2 242 -603
0 c-456 0 -606 3 -615 12 -9 9 -12 79 -12 254 0 133 3 249 6 258 6 14 63 16
550 16 l544 0 0 245 0 245 -540 0 c-523 0 -540 1 -550 19 -6 12 -10 106 -10
235 0 182 2 217 16 230 14 14 81 16 585 16 l569 0 0 240 0 240 -132 1 c-647 3
-1455 3 -1505 1z"/>
<path d="M31912 8978 c-162 -414 -397 -1322 -857 -3306 -84 -367 -181 -782
-214 -922 -152 -651 -204 -997 -204 -1370 0 -318 36 -501 138 -705 128 -256
342 -425 676 -533 326 -106 659 -142 1310 -142 l405 0 158 725 c88 399 157
727 154 730 -2 2 -243 13 -536 23 -292 10 -535 22 -539 26 -13 13 -6 323 11
471 66 571 261 1438 391 1731 l23 51 143 6 c79 4 357 12 616 19 260 6 478 15
484 19 9 5 349 1498 349 1530 0 4 -265 8 -590 11 -324 2 -591 6 -594 9 -3 3
80 390 184 859 104 469 189 854 187 855 -1 1 -374 5 -829 9 l-826 7 -40 -103z"/>
<path d="M35277 9054 c-3 -11 -380 -1589 -837 -3509 -457 -1920 -835 -3505
-840 -3523 l-8 -32 877 0 877 0 427 1858 c236 1021 435 1888 444 1926 l15 69
680 -5 c374 -3 681 -8 683 -9 2 -2 22 -96 45 -209 55 -267 54 -287 -35 -635
-48 -186 -572 -2342 -720 -2962 l-5 -23 877 0 878 0 44 203 c87 395 212 905
415 1686 216 826 271 1052 330 1339 113 546 126 952 39 1226 -145 461 -555
708 -1373 825 -300 43 -631 66 -1138 77 l-303 7 6 26 c20 96 333 1666 332
1667 -1 1 -385 5 -853 9 -826 7 -852 7 -857 -11z"/>
<path d="M22125 7374 c-22 -2 -96 -8 -165 -14 -620 -53 -1229 -221 -1665 -461
-135 -74 -331 -205 -445 -295 -121 -96 -352 -331 -441 -449 -412 -542 -608
-1170 -609 -1950 0 -252 11 -394 46 -581 80 -438 256 -780 545 -1059 375 -362
881 -556 1576 -606 575 -41 1392 72 1866 257 702 275 1294 820 1649 1519 175
345 280 671 335 1040 26 172 25 614 0 770 -42 255 -102 447 -207 660 -109 224
-218 373 -396 545 -343 331 -797 529 -1384 605 -118 16 -606 29 -705 19z m150
-1560 c118 -17 254 -52 385 -101 93 -34 358 -160 392 -186 41 -32 57 -493 25
-709 -67 -445 -266 -786 -590 -1015 -394 -278 -1000 -367 -1477 -218 -390 123
-554 331 -567 720 -6 167 10 275 64 440 86 258 246 510 448 704 98 94 167 141
311 211 319 156 651 206 1009 154z"/>
<path d="M17910 7347 c-344 -5 -626 -10 -628 -12 -3 -2 -981 -3882 -982 -3892
0 -8 -602 -1 -699 7 -419 37 -530 147 -476 471 9 57 48 217 86 354 38 138 105
390 150 560 44 171 122 468 174 660 236 878 359 1433 380 1721 l7 91 -832 7
c-458 4 -836 4 -841 -1 -12 -13 -95 -260 -159 -478 -271 -917 -695 -2734 -751
-3215 -17 -149 -15 -434 4 -550 33 -197 102 -380 198 -522 169 -251 493 -439
899 -522 273 -56 569 -76 1126 -76 193 0 353 -3 357 -6 3 -3 -3 -29 -13 -58
-62 -182 -170 -290 -351 -350 -125 -42 -245 -55 -629 -71 -201 -9 -369 -20
-374 -25 -9 -9 -339 -1390 -334 -1395 5 -4 377 -24 563 -31 200 -7 569 8 757
31 914 112 1463 459 1854 1175 167 304 293 669 454 1310 61 245 208 807 327
1250 424 1590 600 2330 707 2980 36 216 76 519 76 572 l0 28 -212 -2 c-117 -1
-494 -6 -838 -11z"/>
<path d="M25984 7303 c-173 -402 -329 -986 -625 -2347 -66 -303 -146 -667
-179 -810 -83 -365 -103 -507 -103 -741 -1 -207 14 -323 60 -470 156 -495 578
-785 1323 -909 418 -69 990 -91 1740 -66 485 16 1158 41 1309 48 l145 7 682
2655 c376 1460 682 2656 680 2657 -1 1 -382 4 -846 5 l-844 3 -517 -1928
c-284 -1060 -519 -1930 -521 -1933 -13 -12 -392 -27 -703 -28 -280 0 -353 3
-417 16 -108 24 -171 54 -217 103 -50 55 -70 120 -77 250 l-5 100 395 1705
c217 937 394 1705 393 1706 -1 1 -374 5 -829 9 l-827 7 -17 -39z"/>
<path d="M14003 1307 c3 -8 9 -35 12 -61 9 -54 3 -57 -75 -26 -75 30 -79 28
-68 -25 15 -71 13 -73 -92 -67 l-91 5 -142 -139 c-163 -160 -259 -241 -551
-467 -294 -227 -493 -386 -555 -443 l-53 -49 699 2 c384 1 716 5 738 8 l40 6
74 347 c41 191 98 455 128 587 75 336 72 306 35 299 -23 -5 -42 0 -68 15 -25
15 -35 17 -31 8z"/>
</g>
</svg>
